<svg xmlns="http://www.w3.org/2000/svg" id="Layer_1" data-name="Layer 1" viewBox="0 0 913.31 380.29"><defs><style>.cls-1{fill:#63dc3e;}.cls-2{fill:#292929;}</style></defs><title>MARCA__RGB__GAMA-ACADEMY</title><g id="_Group_" data-name="&lt;Group&gt;"><g id="_Group_2" data-name="&lt;Group&gt;"><path id="_Compound_Path_" data-name="&lt;Compound Path&gt;" class="cls-1" d="M114,201.83v-24c0-12.51,6.9-19.24,18.46-19.24,11.21,0,17.6,6.73,18,19H139.86c-.26-6.12-2.59-8.71-7.42-8.71s-7.5,2.67-7.5,9v24c0,6.3,2.76,9,7.68,9,5.09,0,7.85-2.67,7.85-8.8v-5.87h-8.37v-9.4h18.72V202c-.26,12.25-7,19.06-18.37,19.06S114,214.25,114,201.83Z"></path></g><g id="_Group_3" data-name="&lt;Group&gt;"><path id="_Compound_Path_2" data-name="&lt;Compound Path&gt;" class="cls-1" d="M184.36,209.08H170.22l-2.42,11h-11l14.84-60.38H183L197.82,220h-11ZM182.21,199l-2.42-11.21c-.86-4.14-1.81-10.78-2.42-14.84h-.26c-.52,4.05-1.47,10.7-2.33,14.84L172.37,199Z"></path></g><g id="_Group_4" data-name="&lt;Group&gt;"><path id="_Compound_Path_3" data-name="&lt;Compound Path&gt;" class="cls-1" d="M255.78,159.65V220H245.35V201.14c.26-7.07.52-14,.86-20.79l-.43-.17c-1.73,5-3.71,10.44-5.61,15.87l-4.05,10.7H225.59l-4.05-10.7c-1.9-5.43-3.8-10.87-5.61-15.87l-.43.17c.34,6.81.6,13.71.86,20.79V220H206V159.65h10.7l9.83,23.63c1.29,3.19,3.36,8.71,4.14,11.21H231c.78-2.5,2.93-8,4.23-11.21L245,159.65Z"></path></g><g id="_Group_5" data-name="&lt;Group&gt;"><path id="_Compound_Path_4" data-name="&lt;Compound Path&gt;" class="cls-1" d="M291.58,209.08H277.44L275,220H264l14.84-60.38H290.2L305,220H294ZM289.43,199,287,187.77c-.86-4.14-1.81-10.78-2.42-14.84h-.26c-.52,4.05-1.47,10.7-2.33,14.84L279.59,199Z"></path></g></g><g id="_Group_6" data-name="&lt;Group&gt;"><g id="_Group_7" data-name="&lt;Group&gt;"><path id="_Compound_Path_5" data-name="&lt;Compound Path&gt;" class="cls-2" d="M517.61,207.61H500.1l-3.19,13.11h-7.42L505,160.34h7.68l15.53,60.38h-7.42Zm-1.55-6.56-4.92-20.44c-.95-3.88-1.81-9-2.16-11.3h-.26c-.34,2.33-1.21,7.42-2.16,11.3l-4.92,20.44Z"></path></g><g id="_Group_8" data-name="&lt;Group&gt;"><path id="_Compound_Path_6" data-name="&lt;Compound Path&gt;" class="cls-2" d="M534.61,203.3V177.76c0-11.9,6.73-18.55,16.82-18.55,10.35,0,16.73,6.38,17.34,18h-7c-.52-7.76-4.14-11.39-10.44-11.39-5.78,0-9.66,3.79-9.66,11.9V203.3c0,8,4.05,11.82,9.92,11.82,6.38,0,9.92-3.71,10.61-11.3h7c-.69,11.47-7.07,17.94-17.6,17.94C541.42,221.76,534.61,215.2,534.61,203.3Z"></path></g><g id="_Group_9" data-name="&lt;Group&gt;"><path id="_Compound_Path_7" data-name="&lt;Compound Path&gt;" class="cls-2" d="M601.2,207.61H583.69l-3.19,13.11h-7.42l15.53-60.38h7.68l15.53,60.38h-7.42Zm-1.55-6.56-4.92-20.44c-.95-3.88-1.81-9-2.16-11.3h-.26c-.34,2.33-1.21,7.42-2.16,11.3l-4.92,20.44Z"></path></g><g id="_Group_10" data-name="&lt;Group&gt;"><path id="_Compound_Path_8" data-name="&lt;Compound Path&gt;" class="cls-2" d="M621,160.34h14.32c11.56,0,18.29,6.73,18.29,18.29v23.81c0,11.56-6.81,18.29-18.2,18.29H621ZM635.44,214c7.07,0,11.13-4,11.13-11.82V178.8c0-7.76-4-11.73-11.13-11.73h-7.33V214Z"></path></g><g id="_Group_11" data-name="&lt;Group&gt;"><path id="_Compound_Path_9" data-name="&lt;Compound Path&gt;" class="cls-2" d="M696.6,214.08v6.64H666.76V160.34h28.9v6.56H673.83v19.93H694.1v6.47H673.83v20.79Z"></path></g><g id="_Group_12" data-name="&lt;Group&gt;"><path id="_Compound_Path_10" data-name="&lt;Compound Path&gt;" class="cls-2" d="M753.62,160.34v60.38h-7V193c.09-6.56.26-12.42.6-18.29l-.35-.09c-1.64,4.57-3.88,10.18-6,15.87l-6.3,16.3h-7l-6.38-16.3c-2.07-5.69-4.4-11.3-6-15.87l-.43.09c.35,5.87.6,11.73.6,18.29v27.69h-7V160.34h7.42l10.44,25.27c1.47,3.62,3.62,9.57,4.57,12.68h.35c1-3.1,3.19-9.06,4.66-12.68l10.44-25.27Z"></path></g><g id="_Group_13" data-name="&lt;Group&gt;"><path id="_Compound_Path_11" data-name="&lt;Compound Path&gt;" class="cls-2" d="M777.34,200,762.5,160.34h7.42L777.59,182c1,2.85,2.24,6.3,3.28,9.4H781c1-3.11,2.24-6.64,3.28-9.57l7.68-21.48h7.42L784.41,200v20.7h-7.07Z"></path></g></g><g id="_Group_14" data-name="&lt;Group&gt;"><g id="_Group_15" data-name="&lt;Group&gt;"><g id="_Group_16" data-name="&lt;Group&gt;"><g id="_Group_17" data-name="&lt;Group&gt;"><polygon class="cls-1" points="374.99 201.34 361.42 201.34 361.42 171.77 374.99 169.33 374.99 201.34"></polygon></g></g></g><g id="_Group_18" data-name="&lt;Group&gt;"><g id="_Group_19" data-name="&lt;Group&gt;"><g id="_Group_20" data-name="&lt;Group&gt;"><polygon class="cls-1" points="394.47 201.34 380.9 201.34 380.9 165.31 394.47 162.74 394.47 201.34"></polygon></g></g></g><g id="_Group_21" data-name="&lt;Group&gt;"><g id="_Group_22" data-name="&lt;Group&gt;"><g id="_Group_23" data-name="&lt;Group&gt;"><rect class="cls-1" x="400.37" y="159.44" width="13.57" height="41.9"></rect></g></g></g><g id="_Group_24" data-name="&lt;Group&gt;"><g id="_Group_25" data-name="&lt;Group&gt;"><g id="_Group_26" data-name="&lt;Group&gt;"><polygon class="cls-1" points="433.43 201.34 419.86 201.34 419.86 165.28 433.43 167.72 433.43 201.34"></polygon></g></g></g><g id="_Group_27" data-name="&lt;Group&gt;"><g id="_Group_28" data-name="&lt;Group&gt;"><g id="_Group_29" data-name="&lt;Group&gt;"><rect class="cls-1" x="400.39" y="207.28" width="33.03" height="13.57"></rect></g></g></g></g><g id="_Group_30" data-name="&lt;Group&gt;"><path id="_Compound_Path_12" data-name="&lt;Compound Path&gt;" class="cls-1" d="M397.42,266.31a76.17,76.17,0,1,1,76.17-76.17A76.25,76.25,0,0,1,397.42,266.31Zm0-137.33a61.17,61.17,0,1,0,61.17,61.17A61.24,61.24,0,0,0,397.42,129Z"></path></g></svg>