<svg xmlns="http://www.w3.org/2000/svg" width="177" height="33" viewBox="0 0 177 33" fill="none"><path d="M167.621 28.3181C167.622 27.3949 167.898 26.4927 168.412 25.7252C168.927 24.9578 169.658 24.3594 170.513 24.0055C171.368 23.6517 172.309 23.5582 173.218 23.7368C174.126 23.9154 174.961 24.3582 175.618 25.0093C176.274 25.6604 176.723 26.4906 176.907 27.3955C177.09 28.3003 177.002 29.2392 176.651 30.0938C176.301 30.9484 175.705 31.6804 174.938 32.1977C174.171 32.715 173.268 32.9943 172.342 33.0004C171.097 32.9988 169.905 32.5047 169.025 31.6268C168.146 30.7489 167.652 29.5589 167.652 28.3181" fill="#85BC22"></path><path d="M26.8878 15.6218C26.8878 21.018 25.4308 25.169 22.5168 28.0746C19.6028 30.9803 15.5108 32.4331 10.2406 32.4331H0V0.136719H10.9649C16.0478 0.136719 19.9733 1.46295 22.7416 4.1154C25.5099 6.76785 26.892 10.6033 26.8878 15.6218ZM18.0085 15.9331C18.0085 12.9694 17.434 10.7714 16.285 9.33936C15.1361 7.90728 13.3919 7.19125 11.0524 7.19125H8.55465V25.3101H10.4591C13.0568 25.3101 14.9633 24.5401 16.1789 23.0001C17.3944 21.4601 18.0022 19.1045 18.0022 15.9331" fill="#1A1A18"></path><path d="M63.4292 0H55.2742V32.4832H63.4292V0Z" fill="#1A1A18"></path><path d="M90.1921 20.3666C90.1921 24.3142 89.1514 27.39 87.07 29.5942C84.9885 31.7983 82.0745 32.9025 78.328 32.9066C74.7396 32.9066 71.886 31.7776 69.7671 29.5195C67.6482 27.2613 66.5867 24.2104 66.5825 20.3666C66.5825 16.4315 67.6232 13.3744 69.7047 11.1951C71.7861 9.01587 74.7001 7.92625 78.4466 7.92625C80.5945 7.88359 82.7157 8.40541 84.5972 9.43927C86.3761 10.4498 87.8113 11.9677 88.7184 13.7978C89.7213 15.8492 90.218 18.1099 90.1671 20.3915L90.1921 20.3666ZM74.8562 20.3915C74.7727 22.0119 75.0521 23.6305 75.6742 25.1298C75.9113 25.6437 76.2989 26.074 76.786 26.3641C77.273 26.6541 77.8367 26.7904 78.4029 26.7549C78.9627 26.7906 79.5199 26.6539 79.9991 26.3632C80.4782 26.0725 80.8562 25.6419 81.0817 25.1298C81.6797 23.6245 81.9459 22.0085 81.8622 20.3915C81.948 18.7982 81.6793 17.2056 81.0755 15.7279C80.801 15.2562 80.4071 14.8646 79.9331 14.5924C79.4591 14.3201 78.9218 14.1769 78.3748 14.1769C77.8279 14.1769 77.2905 14.3201 76.8165 14.5924C76.3426 14.8646 75.9486 15.2562 75.6742 15.7279C75.1288 16.774 74.8562 18.3327 74.8562 20.404" fill="#1A1A18"></path><path d="M101.582 8.35547H93.4268V32.4828H101.582V8.35547Z" fill="#1A1A18"></path><path d="M101.582 0H93.4268V5.43566H101.582V0Z" fill="#1A1A18"></path><path d="M118.104 26.3257C119.456 26.2862 120.79 26.0166 122.051 25.5287V31.5683C121.049 32.0187 120.002 32.363 118.928 32.5957C117.777 32.8199 116.605 32.9243 115.432 32.907C112.697 32.907 110.723 32.2221 109.512 30.8523C108.301 29.4825 107.697 27.3779 107.701 24.5387V14.5764H104.841V8.35001H107.701V2.19831L115.894 0.772461V8.35624H121.101V14.5827H115.894V23.9845C115.894 25.5474 116.637 26.3257 118.104 26.3257Z" fill="#1A1A18"></path><path d="M136.981 26.3255C138.33 26.2853 139.662 26.0158 140.921 25.5286V31.5682C139.919 32.0198 138.873 32.3642 137.799 32.5955C136.647 32.8195 135.475 32.9238 134.302 32.9069C131.567 32.9069 129.587 32.222 128.382 30.8521C127.177 29.4823 126.565 27.3778 126.565 24.5386V14.5763H123.699V8.34988H126.553V2.12347L134.77 0.791016V8.35611H139.978V14.5825H134.77V23.9844C134.77 25.5452 135.507 26.3255 136.981 26.3255Z" fill="#1A1A18"></path><path d="M162.713 10.7713C160.777 8.87842 158.028 7.92993 154.464 7.92578C150.718 7.92578 147.839 9.0154 145.829 11.1946C143.818 13.3739 142.811 16.5016 142.806 20.5779C142.806 24.5254 143.895 27.566 146.072 29.6996C148.249 31.8331 151.305 32.902 155.239 32.9062C156.873 32.9264 158.505 32.7972 160.116 32.5201C161.49 32.2619 162.818 31.8002 164.056 31.1503L162.807 25.7146C161.952 26.0685 161.071 26.3558 160.172 26.5739C158.876 26.8581 157.552 26.9959 156.225 26.9848C154.879 27.0675 153.547 26.6605 152.479 25.8392C152.02 25.4466 151.653 24.9591 151.403 24.4107C151.153 23.8623 151.026 23.2662 151.03 22.6637H165.604V18.959C165.604 15.3975 164.634 12.6682 162.694 10.7713H162.713ZM151.211 17.4335C151.225 16.3551 151.634 15.3189 152.36 14.5196C152.681 14.2139 153.059 13.9746 153.472 13.8154C153.886 13.6562 154.327 13.5802 154.77 13.5918C155.238 13.5706 155.705 13.6535 156.137 13.8344C156.569 14.0153 156.956 14.2897 157.268 14.6379C157.915 15.4238 158.252 16.4176 158.217 17.4335H151.211Z" fill="#1A1A18"></path><path d="M49.2112 10.7713C47.2754 8.87842 44.5259 7.92993 40.9625 7.92578C37.2159 7.92578 34.3394 9.0154 32.3329 11.1946C30.3264 13.3739 29.3169 16.5016 29.3044 20.5779C29.3044 24.5254 30.393 27.566 32.5702 29.6996C34.7474 31.8331 37.8029 32.902 41.7368 32.9062C43.3728 32.9261 45.0073 32.7969 46.6198 32.5201C48.0019 32.2584 49.3365 31.7903 50.5787 31.1316L49.3298 25.7147C48.4747 26.0676 47.5938 26.3549 46.6947 26.5739C45.3967 26.8577 44.0709 26.9955 42.7421 26.9848C41.3958 27.0636 40.0661 26.6569 38.9955 25.8392C38.5382 25.4458 38.1719 24.9582 37.9218 24.41C37.6717 23.8617 37.5438 23.266 37.5469 22.6637H52.121V18.959C52.121 15.3975 51.1511 12.6682 49.2112 10.7713ZM37.7092 17.4335C37.7215 16.3589 38.1255 15.3253 38.8457 14.5258C39.1662 14.2202 39.5441 13.9809 39.9578 13.8216C40.3715 13.6624 40.8127 13.5864 41.256 13.598C41.724 13.5768 42.191 13.6597 42.623 13.8406C43.0549 14.0215 43.4412 14.296 43.7537 14.6441C44.4024 15.4275 44.746 16.4179 44.7215 17.4335H37.7092Z" fill="#1A1A18"></path></svg>